<svg width="35" height="35" viewBox="0 0 35 35" fill="none" xmlns="http://www.w3.org/2000/svg">
<path fill-rule="evenodd" clip-rule="evenodd" d="M0 17.5C0 7.83502 7.83502 0 17.5 0C27.165 0 35 7.83502 35 17.5C35 27.165 27.165 35 17.5 35C7.83502 35 0 27.165 0 17.5ZM17.5 8.75C22.3125 8.75 26.25 12.6875 26.25 17.5C26.25 21.875 23.0781 25.5938 18.7031 26.25V20.0156H20.7812L21.2188 17.5H18.8125V15.8594C18.8125 15.2031 19.1406 14.5469 20.2344 14.5469H21.3281V12.3594C21.3281 12.3594 20.3438 12.1406 19.3594 12.1406C17.3906 12.1406 16.0781 13.3438 16.0781 15.5312V17.5H13.8906V20.0156H16.0781V26.1406C11.9219 25.4844 8.75 21.875 8.75 17.5C8.75 12.6875 12.6875 8.75 17.5 8.75Z" fill="#BF9461"/>
</svg>
