<svg width="31" height="21" viewBox="0 0 31 21" fill="none" xmlns="http://www.w3.org/2000/svg">
<path d="M26.9955 0.0974121H3.8565C2.83369 0.0974121 1.85277 0.464076 1.12954 1.11675C0.406306 1.76942 0 2.65463 0 3.57765V16.6285C0 17.5515 0.406306 18.4367 1.12954 19.0894C1.85277 19.7421 2.83369 20.1088 3.8565 20.1088H26.9955C28.0183 20.1088 28.9992 19.7421 29.7225 19.0894C30.4457 18.4367 30.852 17.5515 30.852 16.6285V3.57765C30.852 2.65463 30.4457 1.76942 29.7225 1.11675C28.9992 0.464076 28.0183 0.0974121 26.9955 0.0974121ZM28.9238 16.6285C28.9238 17.09 28.7206 17.5326 28.359 17.859C27.9974 18.1853 27.5069 18.3686 26.9955 18.3686H3.8565C3.3451 18.3686 2.85464 18.1853 2.49302 17.859C2.1314 17.5326 1.92825 17.09 1.92825 16.6285V3.57765C1.92825 3.11614 2.1314 2.67353 2.49302 2.3472C2.85464 2.02086 3.3451 1.83753 3.8565 1.83753H26.9955C27.5069 1.83753 27.9974 2.02086 28.359 2.3472C28.7206 2.67353 28.9238 3.11614 28.9238 3.57765V16.6285Z" fill="#BF9461"/>
<path d="M26.7738 4.76971C26.6935 4.68097 26.5946 4.60742 26.4828 4.55325C26.371 4.49907 26.2484 4.46536 26.1221 4.45405C25.9958 4.44273 25.8682 4.45402 25.7468 4.48729C25.6253 4.52056 25.5124 4.57514 25.4143 4.6479L15.426 12.026L5.42801 4.6479C5.33184 4.56675 5.21827 4.50422 5.0943 4.46419C4.97033 4.42416 4.83859 4.40747 4.7072 4.41515C4.57581 4.42282 4.44755 4.4547 4.33034 4.50882C4.21312 4.56294 4.10943 4.63816 4.02566 4.72983C3.94189 4.8215 3.87983 4.92768 3.84327 5.04183C3.80672 5.15598 3.79644 5.27567 3.81311 5.39354C3.82978 5.5114 3.87302 5.62493 3.94018 5.72714C4.00733 5.82934 4.09697 5.91804 4.20357 5.98779L14.8089 13.8183C14.9824 13.948 15.2007 14.0188 15.426 14.0184C15.6479 14.0168 15.8625 13.9461 16.0334 13.8183L26.6388 5.98779C26.8345 5.84174 26.9585 5.63188 26.9838 5.4038C27.0091 5.17572 26.9336 4.94785 26.7738 4.76971Z" fill="#BF9461"/>
<path d="M22.8498 11.6605C22.6692 11.4984 22.4248 11.4075 22.1701 11.4075C21.9154 11.4075 21.671 11.4984 21.4904 11.6605C21.4 11.7414 21.3283 11.8376 21.2793 11.9436C21.2304 12.0496 21.2052 12.1634 21.2052 12.2782C21.2052 12.3931 21.2304 12.5068 21.2793 12.6128C21.3283 12.7188 21.4 12.8151 21.4904 12.896L25.3469 16.3762C25.4368 16.4567 25.5434 16.5205 25.6606 16.5639C25.7778 16.6073 25.9033 16.6294 26.03 16.629C26.1567 16.6286 26.282 16.6057 26.3989 16.5615C26.5158 16.5174 26.6219 16.453 26.7111 16.3718C26.8004 16.2907 26.8711 16.1945 26.9191 16.0887C26.9672 15.983 26.9917 15.8697 26.9913 15.7554C26.9908 15.6411 26.9654 15.5279 26.9165 15.4225C26.8676 15.317 26.7962 15.2213 26.7063 15.1407L22.8498 11.6605Z" fill="#BF9461"/>
<path d="M8.03118 11.6605L4.17468 15.1407C3.99313 15.3034 3.89062 15.5245 3.88972 15.7554C3.88881 15.9863 3.98958 16.208 4.16985 16.3718C4.35012 16.5357 4.59513 16.6282 4.85097 16.629C5.10682 16.6298 5.35255 16.5389 5.5341 16.3762L9.3906 12.896C9.48096 12.8151 9.55269 12.7188 9.60163 12.6128C9.65058 12.5068 9.67578 12.3931 9.67578 12.2782C9.67578 12.1634 9.65058 12.0496 9.60163 11.9436C9.55269 11.8376 9.48096 11.7414 9.3906 11.6605C9.20996 11.4984 8.9656 11.4075 8.71089 11.4075C8.45618 11.4075 8.21182 11.4984 8.03118 11.6605Z" fill="#BF9461"/>
</svg>
