<svg width="24" height="22" viewBox="0 0 24 22" fill="none" xmlns="http://www.w3.org/2000/svg">
<path d="M23.9221 9.40352C21.8732 5.18937 18.0483 1.83892 13.2516 0.0566889C13.0585 -0.00680602 12.8447 -0.000993523 12.6563 0.0728647C12.468 0.146723 12.3201 0.28273 12.2444 0.45163C12.2032 0.536149 12.1815 0.62705 12.1806 0.719027C12.1797 0.811004 12.1996 0.902211 12.2391 0.987343C12.2787 1.07247 12.3371 1.14982 12.411 1.21487C12.4848 1.27992 12.5727 1.33137 12.6693 1.36621C17.0908 3.01097 20.6164 6.10037 22.5056 9.98553C22.5901 10.1503 22.7443 10.2795 22.9355 10.3455C23.1266 10.4115 23.3394 10.4091 23.5286 10.3389C23.6255 10.3016 23.7128 10.2474 23.7854 10.1797C23.8579 10.112 23.9143 10.0321 23.951 9.9448C23.9877 9.8575 24.0041 9.76456 23.9991 9.67156C23.9941 9.57856 23.9679 9.4874 23.9221 9.40352Z" fill="#BF9461"/>
<path d="M12.2602 5.10783C14.9402 6.10182 17.0783 7.97196 18.2249 10.3252C18.2858 10.4412 18.382 10.5402 18.5028 10.6111C18.6236 10.6821 18.7644 10.7222 18.9095 10.727C19.0158 10.7263 19.1205 10.705 19.2164 10.6647C19.3973 10.5866 19.5374 10.4504 19.6077 10.2841C19.6779 10.1178 19.6731 9.93409 19.5941 9.77085C18.2945 7.09918 15.8685 4.97555 12.8267 3.8468C12.6394 3.78826 12.4339 3.79429 12.2514 3.8637C12.0689 3.9331 11.9231 4.06074 11.8431 4.22096C11.7691 4.3876 11.7712 4.57298 11.849 4.73829C11.9267 4.9036 12.074 5.03602 12.2602 5.10783Z" fill="#BF9461"/>
<path d="M19.838 13.339C19.6674 13.1635 19.4556 13.0225 19.2172 12.9259C18.9788 12.8292 18.7195 12.7792 18.457 12.7792C18.1946 12.7792 17.9352 12.8292 17.6968 12.9259C17.4584 13.0225 17.2466 13.1635 17.076 13.339C16.4307 13.9002 15.7855 14.4684 15.1481 15.0435C15.1197 15.0805 15.0832 15.1121 15.0407 15.1364C14.9982 15.1607 14.9505 15.1773 14.9006 15.185C14.8506 15.1928 14.7994 15.1916 14.75 15.1816C14.7006 15.1716 14.654 15.1529 14.613 15.1266C14.196 14.9257 13.7474 14.7663 13.3461 14.5446C11.5045 13.4937 9.87209 12.1828 8.51451 10.6645C7.8057 9.92876 7.22006 9.10747 6.77543 8.22564C6.72708 8.15252 6.71079 8.06635 6.72964 7.98338C6.74848 7.90042 6.80117 7.82639 6.87774 7.77527C7.523 7.22097 8.15251 6.65975 8.7899 6.09159C8.99792 5.93945 9.16533 5.74883 9.28023 5.53328C9.39513 5.31773 9.45469 5.08254 9.45469 4.84442C9.45469 4.60631 9.39513 4.37113 9.28023 4.15558C9.16533 3.94003 8.99792 3.7494 8.7899 3.59726C8.28629 3.14689 7.78267 2.71039 7.27119 2.26002L5.69738 0.874278C5.52041 0.707332 5.30757 0.572981 5.07118 0.47902C4.83479 0.385058 4.57956 0.333351 4.3203 0.326904C4.05938 0.334477 3.80271 0.387346 3.56505 0.482466C3.32738 0.577586 3.11339 0.713088 2.93534 0.881203C2.28221 1.44243 1.66056 2.02444 0.99169 2.57873C0.402818 3.06776 0.0505587 3.73774 0.00807261 4.44949C-0.0479836 5.61678 0.188438 6.78061 0.700551 7.85842C1.68204 10.099 3.09562 12.1734 4.87899 13.9903C7.22436 16.4721 10.1464 18.4827 13.4484 19.8867C14.9132 20.5681 16.519 20.9828 18.1698 21.1061H18.4767C18.9807 21.1249 19.4831 21.0444 19.9473 20.8706C20.4114 20.6968 20.8258 20.4341 21.16 20.1014C21.7109 19.5541 22.3325 19.0552 22.9227 18.5355C23.1268 18.3827 23.2907 18.1926 23.4031 17.9785C23.5155 17.7643 23.5738 17.5312 23.5738 17.2953C23.5738 17.0594 23.5155 16.8263 23.4031 16.6122C23.2907 16.398 23.1268 16.2079 22.9227 16.0551C21.905 15.1497 20.8767 14.2444 19.838 13.339ZM21.821 17.5725L21.2308 18.0852C20.8217 18.4316 20.4046 18.7781 19.9954 19.1868C19.8112 19.3754 19.5791 19.5233 19.3181 19.6183C19.057 19.7134 18.7742 19.7531 18.4924 19.7342H18.2721C16.8246 19.6242 15.417 19.259 14.133 18.6603C11.0353 17.3338 8.29173 15.4447 6.08296 13.1173C4.40393 11.4253 3.07251 9.48862 2.14844 7.3942C1.71694 6.50655 1.51277 5.5461 1.55041 4.58113C1.56842 4.21038 1.74892 3.86021 2.05401 3.60419C2.4632 3.25776 2.84092 2.91131 3.25798 2.55795L4.04488 1.86508C4.07065 1.81822 4.11091 1.77871 4.16101 1.75106C4.21111 1.7234 4.26905 1.70874 4.32818 1.70874C4.38731 1.70874 4.44524 1.7234 4.49534 1.75106C4.54544 1.77871 4.58568 1.81822 4.61145 1.86508C4.95769 2.16301 5.29607 2.46787 5.63444 2.77274L6.1538 3.23003L6.9407 3.92291L7.68824 4.58113C7.9794 4.83749 7.96366 4.886 7.68824 5.12158L7.4207 5.35715C6.88561 5.84216 6.34265 6.31332 5.77608 6.79833C5.4802 7.04579 5.27946 7.36842 5.20187 7.72119C5.12428 8.07395 5.17372 8.43924 5.34329 8.76608C5.83993 9.77041 6.50289 10.7044 7.31055 11.5376C8.78118 13.1665 10.5465 14.571 12.5356 15.6948C12.8425 15.8611 13.1572 15.9996 13.4327 16.1174L13.8576 16.3045C14.1581 16.4608 14.5001 16.5444 14.8491 16.547C15.1208 16.5458 15.3892 16.4946 15.6372 16.3968C15.8852 16.299 16.1072 16.1566 16.2891 15.9789C16.9107 15.4176 17.5403 14.8703 18.2013 14.2952C18.2686 14.218 18.3624 14.1621 18.4688 14.1358C18.5788 14.1592 18.6762 14.2155 18.7443 14.2952C19.7935 15.219 20.8427 16.1267 21.8919 17.0182C22.0729 17.2607 22.0964 17.323 21.821 17.5725Z" fill="#BF9461"/>
</svg>
