<svg width="15" height="17" viewBox="0 0 15 17" fill="none" xmlns="http://www.w3.org/2000/svg">
<path d="M7.03363 0C5.1682 0 3.37916 0.698556 2.0601 1.942C0.74104 3.18545 0 4.87193 0 6.63043C0 9.78244 3.62503 13.5669 6.67113 16.1885L7.04445 16.5098L7.40695 16.1783C10.7777 13.1181 14.0673 9.86914 14.0673 6.63043C14.0673 4.87193 13.3262 3.18545 12.0072 1.942C10.6881 0.698556 8.89907 0 7.03363 0ZM7.03363 15.1072C3.1976 11.7308 1.0821 8.73177 1.0821 6.63043C1.0821 5.14247 1.70913 3.71545 2.82526 2.6633C3.94139 1.61115 5.45519 1.02007 7.03363 1.02007C8.61207 1.02007 10.1259 1.61115 11.242 2.6633C12.3581 3.71545 12.9852 5.14247 12.9852 6.63043C12.9852 9.35911 10.096 12.2867 7.03363 15.1072Z" fill="#BF9461"/>
<path d="M7.03363 4.08008C6.49859 4.08008 5.97556 4.22964 5.53068 4.50986C5.08581 4.79007 4.73907 5.18835 4.53432 5.65434C4.32956 6.12032 4.27599 6.63307 4.38037 7.12776C4.48476 7.62244 4.7424 8.07684 5.12074 8.43349C5.49907 8.79013 5.9811 9.03301 6.50587 9.1314C7.03064 9.2298 7.57457 9.17931 8.06888 8.98629C8.5632 8.79328 8.98571 8.46641 9.28296 8.04704C9.58022 7.62767 9.73888 7.13462 9.73888 6.63024C9.73888 5.9539 9.45386 5.30525 8.94653 4.827C8.4392 4.34875 7.75111 4.08008 7.03363 4.08008ZM7.03363 8.16034C6.71261 8.16034 6.39879 8.0706 6.13186 7.90247C5.86494 7.73434 5.6569 7.49537 5.53404 7.21578C5.41119 6.93619 5.37905 6.62854 5.44168 6.33173C5.50431 6.03492 5.6589 5.76229 5.8859 5.5483C6.1129 5.33431 6.40211 5.18859 6.71697 5.12955C7.03183 5.07051 7.35819 5.10081 7.65478 5.21662C7.95138 5.33243 8.20488 5.52854 8.38323 5.78016C8.56158 6.03179 8.65678 6.32762 8.65678 6.63024C8.65678 7.03605 8.48577 7.42524 8.18137 7.71219C7.87697 7.99914 7.46412 8.16034 7.03363 8.16034Z" fill="#BF9461"/>
</svg>
