<svg width="35" height="35" viewBox="0 0 35 35" fill="none" xmlns="http://www.w3.org/2000/svg">
<path d="M20.3438 17.5L15.75 14.875V20.125L20.3438 17.5Z" fill="#BF9461"/>
<path fill-rule="evenodd" clip-rule="evenodd" d="M0 17.5C0 7.83502 7.83502 0 17.5 0C27.165 0 35 7.83502 35 17.5C35 27.165 27.165 35 17.5 35C7.83502 35 0 27.165 0 17.5ZM24.2813 11.7031C25.0469 11.9219 25.5938 12.4688 25.8125 13.2344C26.25 14.6563 26.25 17.5 26.25 17.5C26.25 17.5 26.25 20.3438 25.9219 21.7656C25.7031 22.5313 25.1562 23.0781 24.3906 23.2969C22.9687 23.625 17.5 23.625 17.5 23.625C17.5 23.625 11.9219 23.625 10.6094 23.2969C9.84375 23.0781 9.29688 22.5313 9.07813 21.7656C8.75 20.3438 8.75 17.5 8.75 17.5C8.75 17.5 8.75 14.6563 8.96875 13.2344C9.1875 12.4688 9.73438 11.9219 10.5 11.7031C11.9219 11.375 17.3906 11.375 17.3906 11.375C17.3906 11.375 22.9688 11.375 24.2813 11.7031Z" fill="#BF9461"/>
</svg>
